<svg width="237" height="183" viewBox="0 0 237 183" fill="none" xmlns="http://www.w3.org/2000/svg">
<path d="M57.7371 1.30324C46.4371 4.30324 32.4371 18.9032 27.7371 32.6032C25.5371 39.2032 22.2371 44.0032 20.4371 43.3032C19.7371 43.0032 15.4371 46.5032 10.6371 51.3032C3.13708 58.7032 1.93708 60.4032 0.837076 64.9032C-0.862924 71.8032 0.137076 81.6032 2.83708 84.9032C3.93708 86.3032 5.53708 88.8032 6.33708 90.6032C7.13708 92.4032 9.73708 95.1032 12.1371 96.8032C18.7371 101.303 23.1371 106.803 28.3371 116.903C33.8371 127.503 37.8371 131.103 58.7371 144.703C67.7371 150.703 72.5371 153.103 76.7371 154.003C83.4371 155.503 93.3371 159.603 108.837 167.403C117.437 171.703 122.637 173.603 129.837 175.103C135.037 176.103 144.537 178.203 150.837 179.603C161.037 182.003 164.437 182.303 181.337 182.403H200.337L208.837 178.303C218.137 173.903 223.837 168.503 225.937 162.103C227.137 158.503 226.637 147.403 224.937 138.403C223.637 131.903 223.637 114.603 224.737 104.403C225.537 97.8032 226.637 94.4032 230.937 85.5032C235.937 75.2032 236.237 74.3032 236.237 66.6032C236.337 55.9032 235.037 52.9032 227.437 47.3032C220.437 42.0032 218.937 39.8032 218.837 34.7032C218.837 32.7032 218.437 29.9032 217.937 28.5032C216.437 24.6032 206.537 15.6032 200.537 12.6032C188.237 6.60324 164.637 2.40324 134.837 0.903244C108.837 -0.496765 63.3371 -0.196762 57.7371 1.30324ZM137.837 6.40324C162.837 8.10324 173.437 9.30324 182.337 11.5032C191.037 13.7032 204.537 20.6032 209.537 25.4032C213.637 29.4032 213.837 29.8032 213.837 35.7032V41.8032L221.237 48.4032C229.037 55.4032 230.337 57.5032 231.237 64.9032C232.237 72.2032 230.537 78.4032 225.537 85.7032C223.037 89.4032 220.537 93.7032 219.937 95.2032C218.537 98.7032 218.537 129.903 219.837 135.403C220.437 137.603 221.137 144.103 221.437 150.003L222.137 160.503L218.437 165.603C216.437 168.403 213.737 171.403 212.537 172.203C207.637 175.403 196.337 178.003 185.337 178.603C172.137 179.303 164.837 178.203 145.137 172.903C137.037 170.703 128.537 168.903 126.237 168.903C123.237 168.903 118.937 167.303 110.737 163.303C104.437 160.203 93.3371 155.503 85.9371 152.803C71.0371 147.403 60.0371 141.503 47.2371 132.103C40.3371 127.003 37.8371 124.403 33.4371 117.603C30.5371 113.103 27.3371 107.803 26.3371 105.903C25.4371 104.003 23.4371 101.103 21.9371 99.5032C19.4371 96.7032 19.4371 96.6032 21.6371 97.2032C22.8371 97.5032 23.8371 97.4032 23.8371 96.9032C23.8371 96.5032 22.0371 95.9032 19.9371 95.5032C15.2371 94.8032 11.8371 91.1032 7.63708 82.4032C4.43708 75.6032 4.03708 69.4032 6.33708 64.5032C8.53708 59.8032 13.0371 54.7032 17.9371 51.4032C21.6371 48.8032 23.3371 48.3032 31.2371 47.8032L40.3371 47.2032L32.6371 47.1032C28.3371 47.0032 24.8371 46.6032 24.8371 46.3032C24.8371 46.0032 25.9371 44.8032 27.3371 43.7032C28.6371 42.7032 30.2371 40.1032 30.7371 38.1032C33.5371 28.0032 45.4371 13.3032 54.8371 8.30324C61.1371 5.00323 102.737 4.00323 137.837 6.40324Z" fill="black"/>
<path d="M99.0371 8.10323C94.9371 8.60323 87.9371 10.4032 83.3371 12.0032C74.9371 15.0032 58.2371 24.3032 54.1371 28.1032C50.8371 31.2032 51.3371 32.5032 54.6371 29.7032C59.6371 25.5032 77.1371 16.0032 85.9371 12.8032C93.3371 10.0032 95.9371 9.60323 107.337 9.20323C114.537 8.90323 123.937 9.20323 128.337 9.80323C149.637 12.7032 156.537 13.2032 164.337 12.3032L172.337 11.5032L156.837 10.8032C148.337 10.4032 138.037 9.40323 134.037 8.50323C126.037 6.80323 111.037 6.60323 99.0371 8.10323Z" fill="black"/>
<path d="M102.237 14.9032C87.4371 16.5032 70.4371 23.5032 62.9371 31.3032C60.4371 33.8032 58.6371 36.1032 58.9371 36.3032C59.1371 36.5032 62.2371 34.3032 65.7371 31.3032C77.5371 21.1032 87.0371 17.9032 109.837 16.1032C118.837 15.4032 121.337 15.6032 127.337 17.2032C134.137 19.0032 149.037 19.4032 180.337 18.6032C183.637 18.5032 187.237 18.9032 188.337 19.3032C190.337 20.2032 190.337 20.2032 188.337 18.0032C186.537 15.9032 185.737 15.8032 178.837 16.3032C174.737 16.6032 164.337 17.2032 155.837 17.5032C142.437 18.0032 139.037 17.8032 130.437 16.0032C120.237 13.8032 114.537 13.6032 102.237 14.9032Z" fill="black"/>
<path d="M91.137 22.4032C87.137 23.1032 81.837 24.7032 79.337 25.9032C74.537 28.2032 64.837 36.4032 64.837 38.1032C64.837 38.7032 66.837 37.3032 69.337 35.0032C73.737 30.9032 82.937 26.1032 90.437 24.0032C92.537 23.3032 99.137 22.5032 105.137 22.2032C115.337 21.6032 115.837 21.7032 115.837 23.6032C115.837 24.7032 116.937 26.6032 118.337 27.9032C119.837 29.3032 121.137 31.9032 121.537 34.2032C121.937 36.8032 122.437 37.7032 123.137 37.0032C124.637 35.5032 122.337 28.8032 119.337 25.9032C116.037 22.8032 116.137 22.2032 120.137 22.6032C122.537 22.9032 123.037 22.8032 121.837 22.0032C119.737 20.5032 99.937 20.8032 91.137 22.4032Z" fill="black"/>
<path d="M161.337 25.0032C151.937 26.0032 149.237 26.6032 150.037 27.5032C150.337 27.7032 156.437 27.3032 163.637 26.4032C176.437 24.8032 176.937 24.8032 181.337 26.8032C187.137 29.4032 190.837 33.1032 190.937 36.6032C190.937 39.4032 190.937 39.4032 192.037 37.1032C193.537 34.1032 190.837 30.3032 185.037 27.1032C180.037 24.3032 173.537 23.7032 161.337 25.0032Z" fill="black"/>
<path d="M155.437 32.8032C153.837 34.6032 151.737 46.1032 153.437 44.6032C153.837 44.2032 154.337 42.1032 154.337 39.9032C154.437 37.6032 155.237 35.1032 156.337 33.9032C157.337 32.8032 157.937 31.7032 157.637 31.4032C157.337 31.1032 156.437 31.7032 155.437 32.8032Z" fill="black"/>
<path d="M80.637 38.8032C73.537 41.1032 69.437 44.0032 67.837 48.0032C65.637 53.2032 67.437 53.6032 86.837 51.9032L97.337 51.1032L106.937 55.1032C116.337 58.9032 116.737 59.0032 119.737 57.5032C121.437 56.6032 123.537 54.7032 124.437 53.4032C125.937 51.1032 125.937 50.7032 124.437 48.4032C122.137 44.9032 119.037 43.1032 109.637 39.8032C99.637 36.3032 89.537 36.0032 80.637 38.8032ZM109.037 43.4032C116.937 46.6032 121.237 49.8032 120.337 52.1032C119.237 55.0032 117.037 54.9032 110.637 51.9032C107.137 50.2032 103.337 48.9032 102.137 48.9032C100.137 48.9032 99.837 48.4032 99.837 44.9032C99.837 40.1032 100.537 40.0032 109.037 43.4032ZM78.337 47.8032C77.737 48.3032 76.337 49.0032 75.137 49.4032C73.437 49.9032 72.837 49.6032 72.837 48.4032C72.837 46.5032 76.937 44.7032 78.337 46.0032C78.937 46.6032 78.937 47.2032 78.337 47.8032Z" fill="black"/>
<path d="M165.337 42.8032C161.037 43.9032 156.737 46.4032 154.037 49.3032C152.237 51.3032 151.137 51.7032 148.337 51.2032C146.437 50.9032 144.237 50.9032 143.337 51.3032C141.037 52.2032 143.237 55.9032 146.137 55.9032C150.237 55.9032 151.337 57.5032 151.837 64.1032C152.337 69.9032 152.537 70.5032 155.337 71.8032C157.037 72.5032 159.337 74.1032 160.537 75.2032L162.737 77.2032L159.537 81.2032C152.537 89.9032 152.237 90.1032 148.937 88.4032C146.037 87.0032 142.837 87.2032 142.837 88.9032C142.837 91.1032 146.337 92.9032 150.637 92.9032C154.937 92.9032 155.637 92.5032 160.537 87.4032L165.837 82.0032L169.837 84.1032C171.937 85.3032 176.137 88.6032 178.937 91.6032C181.737 94.5032 184.437 96.9032 185.037 96.9032C185.537 96.9032 186.537 98.4032 187.337 100.103C188.137 101.903 192.737 107.703 197.737 112.903C205.037 120.503 207.037 122.103 208.037 121.103C209.937 119.203 205.537 111.703 199.337 106.103C196.437 103.503 193.337 100.003 192.237 98.4032C190.137 95.0032 188.437 93.3032 181.337 87.2032C177.637 84.0032 176.837 82.9032 178.237 82.9032C179.337 82.9032 180.937 83.6032 181.937 84.5032C182.837 85.3032 185.137 86.2032 186.937 86.4032C188.837 86.7032 190.837 87.6032 191.337 88.5032C191.937 89.5032 194.337 92.4032 196.837 95.0032C199.337 97.6032 202.137 100.703 203.137 101.903C205.337 104.403 206.337 104.003 205.337 101.003C204.737 98.9032 192.437 86.3032 187.037 82.2032C184.537 80.3032 183.937 80.2032 182.737 81.4032C180.837 83.3032 174.137 81.0032 171.337 77.4032C170.137 76.0032 168.937 74.9032 168.537 74.9032C168.037 74.9032 166.037 73.6032 164.037 72.0032C162.037 70.4032 159.337 68.8032 158.137 68.4032C156.637 68.0032 155.737 66.7032 155.237 64.4032C154.337 59.4032 155.037 57.7032 158.837 55.5032C161.737 53.8032 164.437 53.4032 173.837 53.1032C185.437 52.8032 190.837 51.6032 190.837 49.5032C190.837 48.8032 189.437 47.0032 187.737 45.3032C184.937 42.6032 184.137 42.4032 176.537 42.2032C172.037 42.1032 167.037 42.4032 165.337 42.8032ZM182.837 47.9032C182.837 48.4032 180.437 48.9032 177.437 48.9032C174.437 48.9032 171.637 48.4032 171.337 47.9032C170.937 47.3032 173.037 46.9032 176.737 46.9032C180.137 46.9032 182.837 47.3032 182.837 47.9032Z" fill="black"/>
<path d="M55.637 47.6032C52.137 48.1032 52.137 49.1032 55.537 50.6032C58.937 52.2032 61.037 52.2032 58.337 50.7032C56.537 49.6032 56.637 49.5032 59.837 48.3032C62.737 47.3032 62.937 47.1032 60.837 47.1032C59.437 47.2032 57.137 47.4032 55.637 47.6032Z" fill="black"/>
<path d="M33.337 49.6032C28.437 49.8032 24.037 50.3032 23.637 50.7032C23.237 51.1032 27.837 51.3032 33.937 51.1032C40.437 50.9032 44.637 50.4032 44.337 49.8032C43.937 49.3032 43.437 49.0032 43.037 49.1032C42.637 49.2032 38.337 49.5032 33.337 49.6032Z" fill="black"/>
<path d="M196.837 49.6032C198.237 49.8032 200.037 50.3032 200.837 50.6032C201.637 50.9032 205.037 51.1032 208.437 51.0032C213.537 50.8032 214.937 51.1032 217.437 53.2032C219.037 54.5032 221.437 56.2032 222.637 56.8032C227.137 59.2032 229.137 67.9032 226.737 75.0032C225.137 79.7032 222.437 82.4032 217.737 83.9032C212.937 85.5032 211.137 87.5032 215.437 86.5032C224.137 84.3032 228.837 78.5032 228.837 69.7032C228.837 62.2032 227.237 59.1032 220.237 53.5032L214.637 48.9032L204.537 49.0032C198.937 49.1032 195.437 49.4032 196.837 49.6032Z" fill="black"/>
<path d="M16.437 55.6032C13.437 58.8032 12.937 60.1032 12.437 66.3032C11.737 74.2032 13.637 85.9032 15.937 88.0032C19.137 91.1032 20.937 92.1032 24.337 92.9032C29.537 94.1032 28.637 92.6032 22.537 90.1032C19.737 88.9032 16.737 86.9032 15.937 85.7032C15.137 84.5032 14.437 79.3032 14.037 73.3032C13.637 63.9032 13.737 62.8032 15.837 59.2032C17.137 57.1032 19.137 54.6032 20.237 53.7032C21.537 52.6032 21.837 51.9032 21.037 51.9032C20.337 51.9032 18.237 53.5032 16.437 55.6032Z" fill="black"/>
<path d="M60.837 54.0032C60.837 54.5032 61.337 54.7032 61.837 54.4032C62.437 54.1032 62.837 53.6032 62.837 53.3032C62.837 53.1032 62.437 52.9032 61.837 52.9032C61.337 52.9032 60.837 53.4032 60.837 54.0032Z" fill="black"/>
<path d="M87.937 56.3032C86.637 57.6032 83.337 59.7032 80.537 60.9032C73.937 63.8032 68.737 63.2032 58.837 58.5032C51.937 55.2032 50.737 54.9032 42.037 54.9032C31.437 54.9032 27.437 56.2032 23.537 60.8032C21.137 63.7032 20.837 64.8032 20.837 71.9032C20.837 76.2032 21.237 80.9032 21.737 82.2032C22.937 85.3032 25.737 88.1032 26.937 87.4032C28.137 86.6032 28.137 82.2032 26.837 81.4032C26.337 81.1032 25.437 79.1032 24.837 76.9032C22.137 66.8032 33.137 56.1032 44.037 58.3032C45.737 58.6032 51.037 60.5032 55.837 62.4032C63.037 65.3032 65.837 65.9032 71.937 65.9032C81.837 65.9032 85.637 64.7032 90.937 59.8032C94.437 56.6032 95.037 55.6032 93.837 54.9032C91.537 53.4032 90.337 53.7032 87.937 56.3032Z" fill="black"/>
<path d="M215.337 58.2032C219.137 60.4032 219.337 60.7032 220.137 66.9032L220.937 73.4032L217.137 76.6032C215.037 78.4032 213.837 79.9032 214.337 79.9032C214.937 79.9032 216.837 78.7032 218.637 77.1032L221.937 74.4032L221.237 67.0032C220.537 60.2032 220.337 59.5032 217.437 57.8032C215.737 56.8032 213.637 55.9032 212.837 55.9032C212.037 55.9032 213.137 57.0032 215.337 58.2032Z" fill="black"/>
<path d="M192.737 63.9032C187.737 67.3032 185.237 67.6032 182.037 65.3032C179.437 63.5032 176.837 64.1032 176.837 66.3032C176.837 68.6032 182.137 70.9032 187.437 70.9032C191.537 70.9032 192.537 70.5032 194.837 67.8032C196.937 65.2032 198.337 64.6032 202.737 64.1032C207.137 63.7032 208.537 64.0032 211.037 65.9032C214.237 68.2032 216.637 67.5032 215.537 64.5032C214.637 62.1032 210.537 60.9032 203.437 60.9032C198.137 60.9032 196.437 61.4032 192.737 63.9032Z" fill="black"/>
<path d="M104.637 65.4032C102.837 66.4032 98.0371 67.0032 88.8371 67.1032C77.8371 67.4032 76.2371 67.6032 78.5371 68.5032C80.4371 69.3032 84.9371 69.5032 92.3371 69.0032C101.337 68.5032 104.037 68.0032 106.837 66.2032C110.637 63.7032 108.937 63.1032 104.637 65.4032Z" fill="black"/>
<path d="M105.737 71.6032C105.637 72.1032 105.537 73.1032 105.437 73.9032C105.337 75.1032 103.337 75.5032 95.6371 75.7032C83.7371 76.0032 82.5371 77.4032 94.1371 77.4032C104.437 77.3032 106.837 76.5032 106.837 73.3032C106.837 71.1032 106.037 69.9032 105.737 71.6032Z" fill="black"/>
<path d="M112.137 72.2032C110.937 72.9032 108.737 75.0032 107.237 76.9032C104.637 80.3032 104.637 80.6032 105.237 92.4032C106.137 111.603 108.637 123.803 115.637 143.703C118.437 151.603 119.637 153.903 121.037 153.903C124.437 153.903 124.137 150.803 120.037 142.103C117.337 136.503 115.537 130.903 114.837 126.403C114.337 122.503 112.937 115.703 111.837 111.103C110.737 106.503 109.837 99.9032 109.837 96.4032V90.0032L115.037 90.2032C119.937 90.4032 120.337 90.2032 122.237 87.1032C124.337 83.9032 124.437 83.8032 130.037 84.3032C133.337 84.5032 136.137 84.3032 136.437 83.7032C137.737 81.7032 134.137 80.1032 127.037 79.6032L119.737 79.0032L119.137 82.0032C118.237 86.6032 111.837 85.8032 111.837 81.0032C111.837 77.1032 113.037 75.9032 117.437 75.3032C123.737 74.4032 124.237 74.1032 122.837 72.4032C121.337 70.6032 115.237 70.5032 112.137 72.2032Z" fill="black"/>
<path d="M93.4371 85.1032C93.1371 88.0032 92.7371 99.3032 92.5371 110.103C92.1371 128.603 92.2371 130.103 94.1371 133.103C95.2371 134.903 96.7371 138.003 97.4371 139.903C98.5371 142.803 98.7371 143.003 98.8371 141.003C98.8371 139.703 97.9371 137.103 96.7371 135.303C94.8371 132.203 94.7371 130.303 94.5371 108.203C94.5371 95.1032 94.7371 83.4032 95.2371 82.1032C95.6371 80.8032 95.5371 79.9032 94.9371 79.9032C94.4371 79.9032 93.7371 82.3032 93.4371 85.1032Z" fill="black"/>
<path d="M78.4371 87.7032C77.8371 89.5032 78.7371 100.303 80.9371 117.803C82.1371 128.003 84.1371 132.503 83.3371 123.403C82.4371 113.003 81.0371 92.5032 80.9371 89.1032C80.8371 85.6032 79.3371 84.8032 78.4371 87.7032Z" fill="black"/>
<path d="M168.537 131.103C166.437 131.703 164.037 133.303 162.837 134.903C161.637 136.603 158.737 138.403 154.937 139.803C148.537 142.103 145.237 145.403 142.337 152.203C140.837 155.803 140.337 160.903 141.437 160.903C143.337 160.903 145.837 158.503 145.837 156.603C145.837 152.103 150.637 146.803 157.737 143.703C161.337 142.003 165.537 139.403 167.037 137.803C169.437 135.203 170.337 134.903 176.037 134.903C186.437 135.003 194.737 136.503 198.937 139.303C202.437 141.703 202.837 141.703 204.337 140.203C205.937 138.703 205.837 138.403 203.637 136.803C202.437 135.803 200.937 134.903 200.437 134.903C199.937 134.903 198.737 134.303 197.937 133.503C194.237 130.303 176.937 128.903 168.537 131.103Z" fill="black"/>
<path d="M205.837 130.903C205.837 131.403 206.937 132.903 208.337 134.303C211.637 137.603 211.537 139.503 207.937 140.203C205.637 140.703 204.937 141.403 204.637 143.603C204.337 146.003 203.837 146.503 200.337 146.903C197.337 147.303 196.837 147.603 198.137 148.203C202.437 149.903 206.037 148.703 206.437 145.403C206.437 144.803 206.637 143.803 206.637 143.103C206.737 142.303 207.637 142.103 209.137 142.403C210.937 142.903 211.737 142.503 212.637 140.403C214.237 136.903 214.237 136.503 211.237 133.003C208.737 130.003 205.837 128.903 205.837 130.903Z" fill="black"/>
<path d="M168.237 145.203C165.237 148.303 162.837 151.503 162.837 152.303C162.837 155.603 165.237 154.803 169.737 150.003C173.737 145.703 175.037 144.903 178.037 144.903C181.337 144.903 184.837 142.603 183.537 141.303C183.237 140.903 180.837 140.403 178.337 140.103C173.837 139.603 173.637 139.703 168.237 145.203Z" fill="black"/>
<path d="M132.837 156.903C132.837 158.403 137.737 166.203 139.637 167.603C141.837 169.403 149.337 169.203 150.837 167.403C152.837 165.003 151.337 164.603 147.937 166.403C143.537 168.603 140.137 166.803 137.137 160.603C134.937 156.303 132.837 154.503 132.837 156.903Z" fill="black"/>
</svg>
